<svg xmlns="http://www.w3.org/2000/svg" width="768" height="768" viewBox="0 0 600 600" xmlns:xlink="http://www.w3.org/1999/xlink"><circle fill="#1a1a1a" cx="300" cy="300" r="297"/><path fill="#e6e6e6" d="M300 3a148.5 148.5 0 0 1 0 297 148.5 148.5 0 0 0 0 297 297 297 0 0 0 0-594Z"/><circle cx="300" cy="300" r="297" fill="none" stroke="#000" stroke-width="2.962"/><defs><g id="a"><path id="b" d="M229.245 127.006c4.954 0 11.071 1.229 16.48 4.93v7.387c-7.29-6.791-14.473-6.556-16.063-6.556-12.381 0-18.319 8.158-18.319 21.129 0 12.948 5.91 21.093 18.319 21.093 1.59 0 9.026 0 16.063-6.556v7.319c-6.804 4.621-13.184 4.998-16.48 4.998-15.846 0-25.292-10.752-25.292-26.854 0-16.159 9.456-26.89 25.292-26.89"/><path d="M269.248 179.743c-10.409 0-13.011-3.82-13.011-12.803v-21.094h-4.684v-4.961h4.684v-11.034h6.419v11.034h13.149v4.961h-13.149v21.094c0 5.969 1.318 7.461 6.592 7.461h6.557v5.342Zm21.163-32.822c2.525-4.437 6.493-6.971 13.079-6.971.868 0 2.36.192 3.227.347l.035 6.556c-.874-.507-2.559-1.214-5.135-1.214-7.665 0-11.206 5.445-11.206 13.635v20.469h-6.418v-38.858h6.418Zm23.106-21.161v53.983h6.384V125.76Zm16.48 31.675v5.69h18.7v-5.69Z"/></g></defs><g fill="#fff"><use xlink:href="#a"/><use x="152.238" xlink:href="#b"/></g><use x=".954" y="289.33" xlink:href="#a"/><path d="M349.547 417.275h7.321l16.41 43.607 16.445-43.607h7.286l-19.741 51.798h-7.945Z"/></svg>